# xmcd
#
# Track frame offsets:
#	150
#	18146
#	29828
#	44496
#	61302
#	73558
#	87303
#	104214
#	121868
#	133924
#	148579
#	166880
#	176280
#	190399
#	201622
#	215261
#	227356
#	250694
#	277378
#
# Disc length: 4184
#
# Revision: 3
# Processed by: cddbd v1.5.1PL0 Copyright (c) Steve Scherf et al.
# Submitted via: ExactAudioCopy v0.95a3
# Normalized: r2:DSETVAR1
#
DISCID=22105613
DTITLE=Various Artist - Brasil - Cd 8 le canzoni della libertà
DYEAR=2003
DGENRE=MPB
TTITLE0=Chico Buarque - Não existe pecado ao sul do Ecuador
TTITLE1=Edu Lobo, Tamba Trio - Borandá
TTITLE2=Caetano Veloso - Um índio (Live)
TTITLE3=Geraldo Vandré - Berimbau
TTITLE4=Elis Regina - Nada será como antes
TTITLE5=Edu Lobo - Ponteio
TTITLE6=Jorge Ben - Curumim chama cunhatã que eu vou contar (todo dia era dia de indio)
TTITLE7=Chico Buarque, MPB 4 - Roda viva
TTITLE8=Chico César - Clandestino (Live)
TTITLE9=Ivan Lins - Aos nossos filhos
TTITLE10=Jair Rodrigues - Disparada
TTITLE11=Vinicius de Moraes - Lamento no morro
TTITLE12=Nara Leão - Debaixo dos carcóis dos seus cabelos
TTITLE13=Chico Buarque - Funeral de um lavrador
TTITLE14=Gonzaguinha - Comportamento geral
TTITLE15=Beth Carvalho - Onde o Brasil aprendeu a liberdade
TTITLE16=Flavio Venturini - Mais uma vez (Live)
TTITLE17=Rita Lee - Perto do fogo (Live)
TTITLE18=Milton Nascimento - Os povos
EXTD=
EXTT0=
EXTT1=
EXTT2=
EXTT3=
EXTT4=
EXTT5=
EXTT6=
EXTT7=
EXTT8=
EXTT9=
EXTT10=
EXTT11=
EXTT12=
EXTT13=
EXTT14=
EXTT15=
EXTT16=
EXTT17=
EXTT18=
PLAYORDER=
